<svg width="61" height="60" viewBox="0 0 61 60" fill="none" xmlns="http://www.w3.org/2000/svg">
<ellipse cx="30.5" cy="30" rx="30.5" ry="30" fill="#2B3392"/>
<path d="M35.625 20.5C36.5078 20.5 37.3359 20.668 38.1094 21.0039C38.8828 21.3399 39.5586 21.793 40.1367 22.3633C40.7148 22.9336 41.168 23.6094 41.4961 24.3906C41.8242 25.1719 41.9922 26 42 26.875C42 27.7266 41.8398 28.543 41.5195 29.3242C41.1992 30.1055 40.7383 30.793 40.1367 31.3867L30 41.5117L19.8633 31.3867C19.2695 30.793 18.8125 30.1055 18.4922 29.3242C18.1719 28.543 18.0078 27.7266 18 26.875C18 26 18.1641 25.1758 18.4922 24.4024C18.8203 23.6289 19.2773 22.9531 19.8633 22.375C20.4492 21.7969 21.125 21.3399 21.8906 21.0039C22.6563 20.668 23.4844 20.5 24.375 20.5C25.0234 20.5 25.6016 20.5742 26.1094 20.7227C26.6172 20.8711 27.0859 21.0742 27.5156 21.332C27.9453 21.5899 28.3594 21.9063 28.7578 22.2813C29.1562 22.6563 29.5703 23.0586 30 23.4883C30.4297 23.0508 30.8398 22.6484 31.2305 22.2813C31.6211 21.9141 32.0352 21.6016 32.4727 21.3438C32.9102 21.0859 33.3828 20.8789 33.8906 20.7227C34.3984 20.5664 34.9766 20.4922 35.625 20.5ZM39.0703 30.3203C39.5312 29.8594 39.8828 29.332 40.125 28.7383C40.3672 28.1445 40.4883 27.5234 40.4883 26.875C40.4883 26.1953 40.3633 25.5625 40.1133 24.9766C39.8633 24.3906 39.5195 23.8789 39.082 23.4414C38.6445 23.0039 38.1289 22.6641 37.5352 22.4219C36.9414 22.1797 36.3047 22.0547 35.625 22.0469C34.9688 22.0469 34.3867 22.1484 33.8789 22.3516C33.3711 22.5547 32.9023 22.8281 32.4727 23.1719C32.043 23.5156 31.6328 23.8945 31.2422 24.3086C30.8516 24.7227 30.4375 25.1563 30 25.6094C29.5781 25.1875 29.168 24.7617 28.7695 24.332C28.3711 23.9024 27.957 23.5156 27.5273 23.1719C27.0977 22.8281 26.625 22.5469 26.1094 22.3281C25.5938 22.1094 25.0156 22 24.375 22C23.7031 22 23.0703 22.125 22.4766 22.375C21.8828 22.625 21.3672 22.9727 20.9297 23.418C20.4922 23.8633 20.1445 24.3828 19.8867 24.9766C19.6289 25.5703 19.5 26.2031 19.5 26.875C19.5 27.5234 19.6211 28.1445 19.8633 28.7383C20.1055 29.332 20.4609 29.8594 20.9297 30.3203L30 39.3906L39.0703 30.3203Z" fill="white"/>
</svg>
