<svg width="32" height="32" viewBox="0 0 32 32" fill="none" xmlns="http://www.w3.org/2000/svg">
<g clip-path="url(#clip0)">
<path fill-rule="evenodd" clip-rule="evenodd" d="M1.39876e-06 16C1.76974e-06 11.7565 1.68571 7.68687 4.68629 4.68629C7.68688 1.68571 11.7565 -1.76974e-06 16 -1.39876e-06C20.2435 -1.02779e-06 24.3131 1.68571 27.3137 4.68629C30.3143 7.68687 32 11.7565 32 16C32 20.2435 30.3143 24.3131 27.3137 27.3137C24.3131 30.3143 20.2435 32 16 32C11.7565 32 7.68687 30.3143 4.68629 27.3137C1.68571 24.3131 1.02779e-06 20.2435 1.39876e-06 16ZM16.708 10.708C16.8958 10.5202 17.0013 10.2655 17.0013 10C17.0013 9.73445 16.8958 9.47977 16.708 9.292C16.5202 9.10423 16.2656 8.99874 16 8.99874C15.7345 8.99874 15.4798 9.10423 15.292 9.292L9.292 15.292C9.19887 15.3849 9.12499 15.4952 9.07458 15.6167C9.02416 15.7382 8.99821 15.8685 8.99821 16C8.99821 16.1315 9.02416 16.2618 9.07458 16.3833C9.12499 16.5048 9.19887 16.6151 9.292 16.708L15.292 22.708C15.385 22.801 15.4954 22.8747 15.6168 22.925C15.7383 22.9754 15.8685 23.0013 16 23.0013C16.1315 23.0013 16.2617 22.9754 16.3832 22.925C16.5046 22.8747 16.615 22.801 16.708 22.708C16.801 22.615 16.8747 22.5046 16.925 22.3832C16.9754 22.2617 17.0013 22.1315 17.0013 22C17.0013 21.8685 16.9754 21.7383 16.925 21.6168C16.8747 21.4954 16.801 21.385 16.708 21.292L12.414 17L22 17C22.2652 17 22.5196 16.8946 22.7071 16.7071C22.8946 16.5196 23 16.2652 23 16C23 15.7348 22.8946 15.4804 22.7071 15.2929C22.5196 15.1054 22.2652 15 22 15L12.414 15L16.708 10.708Z" fill="white"/>
</g>
<defs>
<clipPath id="clip0">
<rect width="32" height="32" fill="white" transform="translate(32 32) rotate(-180)"/>
</clipPath>
</defs>
</svg>
