<svg width="33" height="33" viewBox="0 0 33 33" fill="none" xmlns="http://www.w3.org/2000/svg">
<circle cx="16.5" cy="16.5" r="16.5" fill="#FFE0E1"/>
<path d="M10.8124 17C10.9648 17 11.0966 17.0557 11.2079 17.167C11.3192 17.2783 11.3749 17.4102 11.3749 17.5625C11.3749 17.7148 11.3192 17.8467 11.2079 17.958C11.0966 18.0693 10.9648 18.125 10.8124 18.125C10.6601 18.125 10.5282 18.0693 10.4169 17.958C10.3056 17.8467 10.2499 17.7148 10.2499 17.5625C10.2499 17.4102 10.3056 17.2783 10.4169 17.167C10.5282 17.0557 10.6601 17 10.8124 17ZM21.4996 11.375C22.1265 11.375 22.7271 11.5186 23.3013 11.8057C23.8286 12.0693 24.2651 12.415 24.6108 12.8428C24.9565 13.2705 25.2319 13.7451 25.437 14.2666C25.642 14.7881 25.7885 15.3301 25.8764 15.8926C25.9643 16.4551 26.0053 17.0117 25.9995 17.5625C25.9995 18.1074 25.9584 18.6641 25.8764 19.2324C25.7944 19.8008 25.6508 20.3428 25.4458 20.8584C25.2407 21.374 24.9624 21.8457 24.6108 22.2734C24.2593 22.7012 23.8228 23.0498 23.3013 23.3193C22.7271 23.6064 22.1265 23.75 21.4996 23.75H20.3746V26H11.3749V23.75H8V15.875C8 15.7168 8.0293 15.5703 8.08789 15.4355C8.14648 15.3008 8.22558 15.1836 8.32519 15.084C8.42479 14.9844 8.54491 14.9023 8.68553 14.8379C8.82615 14.7734 8.97263 14.7441 9.12497 14.75H11.3749V8H20.3746V11.375H21.4996ZM12.4999 14.75H19.2497V9.125H12.4999V14.75ZM19.2497 20.375H12.4999V24.875H19.2497V20.375ZM21.4996 19.25V15.875H9.12497V22.625H11.3749V19.25H21.4996ZM21.4996 22.625C21.9332 22.625 22.3169 22.5488 22.6509 22.3965C22.9849 22.2441 23.2779 22.0391 23.5298 21.7812C23.7817 21.5234 23.9927 21.2246 24.1626 20.8848C24.3325 20.5449 24.4702 20.1875 24.5757 19.8125C24.6811 19.4375 24.7573 19.0566 24.8042 18.6699C24.851 18.2832 24.8745 17.9141 24.8745 17.5625C24.8745 17.2109 24.851 16.8418 24.8042 16.4551C24.7573 16.0684 24.6841 15.6875 24.5845 15.3125C24.4848 14.9375 24.3472 14.5801 24.1714 14.2402C23.9956 13.9004 23.7847 13.6016 23.5386 13.3438C23.2925 13.0859 22.9995 12.8809 22.6597 12.7285C22.3199 12.5762 21.9332 12.5 21.4996 12.5H20.9371C20.7848 12.5 20.6529 12.5557 20.5416 12.667C20.4303 12.7783 20.3746 12.9102 20.3746 13.0625V14.1875C20.3746 14.3516 20.4127 14.4717 20.4889 14.5479C20.565 14.624 20.6588 14.6797 20.7701 14.7148C20.8814 14.75 21.0045 14.7646 21.1392 14.7588C21.274 14.7529 21.3941 14.75 21.4996 14.75C21.6578 14.75 21.8043 14.7793 21.939 14.8379C22.0738 14.8965 22.191 14.9756 22.2906 15.0752C22.3902 15.1748 22.4722 15.2949 22.5367 15.4355C22.6011 15.5762 22.6304 15.7227 22.6246 15.875V19.25C22.6246 19.4082 22.5953 19.5547 22.5367 19.6895C22.4781 19.8242 22.399 19.9414 22.2994 20.041C22.1998 20.1406 22.0796 20.2227 21.939 20.2871C21.7984 20.3516 21.6519 20.3809 21.4996 20.375H21.148C21.0191 20.375 20.8961 20.3867 20.7789 20.4102C20.6617 20.4336 20.565 20.4863 20.4889 20.5684C20.4127 20.6504 20.3746 20.7734 20.3746 20.9375V22.0625C20.3746 22.2148 20.4303 22.3467 20.5416 22.458C20.6529 22.5693 20.7848 22.625 20.9371 22.625H21.4996Z" fill="#EE1F23"/>
</svg>
