<svg width="30" height="30" viewBox="0 0 30 30" fill="none" xmlns="http://www.w3.org/2000/svg">
<circle cx="15" cy="15" r="15" fill="#EE1F23"/>
<path opacity="0.9" d="M15.002 10.385C12.448 10.385 10.3881 12.4455 10.3881 15C10.3881 17.5545 12.448 19.615 15.002 19.615C17.5559 19.615 19.616 17.5545 19.616 15C19.616 12.4455 17.5559 10.385 15.002 10.385ZM15.002 18.0003C13.3516 18.0003 12.0024 16.6548 12.0024 15C12.0024 13.3452 13.3476 11.9997 15.002 11.9997C16.6564 11.9997 18.0017 13.3452 18.0017 15C18.0017 16.6548 16.6524 18.0003 15.002 18.0003ZM20.8809 10.1963C20.8809 10.7947 20.399 11.2727 19.8047 11.2727C19.2063 11.2727 18.7285 10.7907 18.7285 10.1963C18.7285 9.60181 19.2104 9.11983 19.8047 9.11983C20.399 9.11983 20.8809 9.60181 20.8809 10.1963ZM23.9367 11.2887C23.8685 9.84682 23.5392 8.56957 22.4831 7.51724C21.431 6.46491 20.154 6.13556 18.7124 6.06326C17.2267 5.97891 12.7733 5.97891 11.2876 6.06326C9.84997 6.13154 8.573 6.46089 7.5169 7.51322C6.46079 8.56555 6.13553 9.8428 6.06324 11.2847C5.97892 12.7709 5.97892 17.2251 6.06324 18.7113C6.13151 20.1532 6.46079 21.4305 7.5169 22.4827C8.573 23.5351 9.84596 23.8645 11.2876 23.9367C12.7733 24.0211 17.2267 24.0211 18.7124 23.9367C20.154 23.8685 21.431 23.5391 22.4831 22.4827C23.5352 21.4305 23.8645 20.1532 23.9367 18.7113C24.0211 17.2251 24.0211 12.7749 23.9367 11.2887ZM22.0173 20.3058C21.7041 21.0931 21.0977 21.6995 20.3067 22.0169C19.122 22.4868 16.3111 22.3783 15.002 22.3783C13.6929 22.3783 10.878 22.4827 9.69738 22.0169C8.91032 21.7035 8.30396 21.0971 7.98672 20.3058C7.5169 19.1209 7.62532 16.3094 7.62532 15C7.62532 13.6906 7.52091 10.8751 7.98672 9.69419C8.29994 8.90696 8.9063 8.30046 9.69738 7.98316C10.882 7.51322 13.6929 7.62167 15.002 7.62167C16.3111 7.62167 19.1261 7.51724 20.3067 7.98316C21.0937 8.29644 21.7001 8.90294 22.0173 9.69419C22.4871 10.8791 22.3787 13.6906 22.3787 15C22.3787 16.3094 22.4871 19.1249 22.0173 20.3058Z" fill="white"/>
</svg>
