<svg width="33" height="33" viewBox="0 0 33 33" fill="none" xmlns="http://www.w3.org/2000/svg">
<circle cx="16.5" cy="16.5" r="16.5" fill="#FFE0E1"/>
<path d="M16.5 7C17.1016 7 17.6826 7.07861 18.2432 7.23584C18.8037 7.39307 19.3267 7.61182 19.812 7.89209C20.2974 8.17236 20.7383 8.51416 21.1348 8.91748C21.5313 9.3208 21.873 9.76514 22.1602 10.2505C22.4473 10.7358 22.6694 11.2588 22.8267 11.8193C22.9839 12.3799 23.0625 12.9609 23.0625 13.5625C23.0625 14.0342 23.0078 14.4819 22.8984 14.9058C22.7891 15.3296 22.625 15.7568 22.4062 16.1875L16.5 28L10.5938 16.1875C10.3818 15.7637 10.2212 15.3398 10.1118 14.916C10.0024 14.4922 9.94434 14.041 9.9375 13.5625C9.9375 12.9609 10.0161 12.3799 10.1733 11.8193C10.3306 11.2588 10.5493 10.7358 10.8296 10.2505C11.1099 9.76514 11.4517 9.32422 11.855 8.92773C12.2583 8.53125 12.7026 8.18945 13.188 7.90234C13.6733 7.61523 14.1963 7.39307 14.7568 7.23584C15.3174 7.07861 15.8984 7 16.5 7ZM21.3809 15.6748V15.6646L21.3911 15.6543C21.562 15.333 21.6919 14.9946 21.7808 14.6392C21.8696 14.2837 21.9141 13.9248 21.9141 13.5625C21.9141 12.8174 21.7739 12.1167 21.4937 11.4604C21.2134 10.8042 20.8237 10.23 20.3247 9.73779C19.8257 9.24561 19.2515 8.85938 18.6021 8.5791C17.9526 8.29883 17.252 8.15527 16.5 8.14844C15.7549 8.14844 15.0542 8.28857 14.3979 8.56885C13.7417 8.84912 13.1675 9.23877 12.6753 9.73779C12.1831 10.2368 11.7969 10.811 11.5166 11.4604C11.2363 12.1099 11.0928 12.8105 11.0859 13.5625C11.0859 13.9248 11.1304 14.2837 11.2192 14.6392C11.3081 14.9946 11.438 15.333 11.6089 15.6543V15.6646L11.6191 15.6748L16.5 25.4365L21.3809 15.6748ZM16.5 9.70703C17.0332 9.70703 17.5322 9.80615 17.9971 10.0044C18.4619 10.2026 18.8721 10.4795 19.2275 10.835C19.583 11.1904 19.8564 11.5972 20.0479 12.0552C20.2393 12.5132 20.3418 13.0156 20.3555 13.5625C20.3555 14.0957 20.2563 14.5947 20.0581 15.0596C19.8599 15.5244 19.583 15.9346 19.2275 16.29C18.8721 16.6455 18.4653 16.9189 18.0073 17.1104C17.5493 17.3018 17.0469 17.4043 16.5 17.418C15.9668 17.418 15.4678 17.3188 15.0029 17.1206C14.5381 16.9224 14.1279 16.6455 13.7725 16.29C13.417 15.9346 13.1436 15.5278 12.9521 15.0698C12.7607 14.6118 12.6582 14.1094 12.6445 13.5625C12.6445 13.0293 12.7437 12.5303 12.9419 12.0654C13.1401 11.6006 13.417 11.1904 13.7725 10.835C14.1279 10.4795 14.5347 10.2061 14.9927 10.0146C15.4507 9.82324 15.9531 9.7207 16.5 9.70703ZM16.5 16.2695C16.876 16.2695 17.228 16.2012 17.5562 16.0645C17.8843 15.9277 18.1714 15.7329 18.4175 15.48C18.6636 15.2271 18.855 14.9399 18.9917 14.6187C19.1284 14.2974 19.2002 13.9453 19.207 13.5625C19.207 13.1865 19.1387 12.8345 19.002 12.5063C18.8652 12.1782 18.6704 11.8911 18.4175 11.645C18.1646 11.3989 17.8774 11.2075 17.5562 11.0708C17.2349 10.9341 16.8828 10.8623 16.5 10.8555C16.124 10.8555 15.772 10.9238 15.4438 11.0605C15.1157 11.1973 14.8286 11.3921 14.5825 11.645C14.3364 11.8979 14.145 12.1851 14.0083 12.5063C13.8716 12.8276 13.7998 13.1797 13.793 13.5625C13.793 13.9385 13.8613 14.2905 13.998 14.6187C14.1348 14.9468 14.3296 15.2339 14.5825 15.48C14.8354 15.7261 15.1226 15.9175 15.4438 16.0542C15.7651 16.1909 16.1172 16.2627 16.5 16.2695Z" fill="#EE1F23"/>
</svg>
