<svg width="61" height="60" viewBox="0 0 61 60" fill="none" xmlns="http://www.w3.org/2000/svg">
<ellipse cx="30.5" cy="30" rx="30.5" ry="30" fill="#2B3392"/>
<path d="M42 23.5V38.5H19.5V35.5H18V22H39V23.5H42ZM36 23.5C36 23.7109 36.0391 23.9063 36.1172 24.0859C36.1953 24.2656 36.3008 24.4219 36.4336 24.5547C36.5664 24.6875 36.7266 24.7969 36.9141 24.8828C37.1016 24.9688 37.2969 25.0078 37.5 25V23.5H36ZM19.5 25C19.7109 25 19.9063 24.9609 20.0859 24.8828C20.2656 24.8047 20.4219 24.6992 20.5547 24.5664C20.6875 24.4336 20.7969 24.2734 20.8828 24.0859C20.9688 23.8984 21.0078 23.7031 21 23.5H19.5V25ZM19.5 31C19.9141 31 20.3008 31.0781 20.6602 31.2344C21.0195 31.3906 21.3398 31.6055 21.6211 31.8789C21.9023 32.1523 22.1172 32.4688 22.2656 32.8281C22.4141 33.1875 22.4922 33.5781 22.5 34H34.5C34.5 33.5859 34.5781 33.1992 34.7344 32.8398C34.8906 32.4805 35.1055 32.1602 35.3789 31.8789C35.6523 31.5977 35.9688 31.3828 36.3281 31.2344C36.6875 31.0859 37.0781 31.0078 37.5 31V26.5C37.0859 26.5 36.6992 26.4219 36.3398 26.2656C35.9805 26.1094 35.6602 25.8945 35.3789 25.6211C35.0977 25.3477 34.8828 25.0312 34.7344 24.6719C34.5859 24.3125 34.5078 23.9219 34.5 23.5H22.5C22.5 23.9141 22.4219 24.3008 22.2656 24.6602C22.1094 25.0195 21.8945 25.3398 21.6211 25.6211C21.3477 25.9023 21.0312 26.1172 20.6719 26.2656C20.3125 26.4141 19.9219 26.4922 19.5 26.5V31ZM37.5 32.5C37.2891 32.5 37.0937 32.5391 36.9141 32.6172C36.7344 32.6953 36.5781 32.8008 36.4453 32.9336C36.3125 33.0664 36.2031 33.2266 36.1172 33.4141C36.0312 33.6016 35.9922 33.7969 36 34H37.5V32.5ZM19.5 34H21C21 33.7891 20.9609 33.5937 20.8828 33.4141C20.8047 33.2344 20.6992 33.0781 20.5664 32.9453C20.4336 32.8125 20.2734 32.7031 20.0859 32.6172C19.8984 32.5312 19.7031 32.4922 19.5 32.5V34ZM40.5 25H39V35.5H21V37H40.5V25ZM23.25 29.5C23.0469 29.5 22.8711 29.4258 22.7227 29.2773C22.5742 29.1289 22.5 28.9531 22.5 28.75C22.5 28.5469 22.5742 28.3711 22.7227 28.2227C22.8711 28.0742 23.0469 28 23.25 28C23.4531 28 23.6289 28.0742 23.7773 28.2227C23.9258 28.3711 24 28.5469 24 28.75C24 28.9531 23.9258 29.1289 23.7773 29.2773C23.6289 29.4258 23.4531 29.5 23.25 29.5ZM33.75 29.5C33.5469 29.5 33.3711 29.4258 33.2227 29.2773C33.0742 29.1289 33 28.9531 33 28.75C33 28.5469 33.0742 28.3711 33.2227 28.2227C33.3711 28.0742 33.5469 28 33.75 28C33.9531 28 34.1289 28.0742 34.2773 28.2227C34.4258 28.3711 34.5 28.5469 34.5 28.75C34.5 28.9531 34.4258 29.1289 34.2773 29.2773C34.1289 29.4258 33.9531 29.5 33.75 29.5ZM28.5 32.5C28.0859 32.5 27.6992 32.4219 27.3398 32.2656C26.9805 32.1094 26.6602 31.8945 26.3789 31.6211C26.0977 31.3477 25.8828 31.0312 25.7344 30.6719C25.5859 30.3125 25.5078 29.9219 25.5 29.5V28C25.5 27.5859 25.5781 27.1992 25.7344 26.8398C25.8906 26.4805 26.1055 26.1602 26.3789 25.8789C26.6523 25.5977 26.9688 25.3828 27.3281 25.2344C27.6875 25.0859 28.0781 25.0078 28.5 25C28.9141 25 29.3008 25.0781 29.6602 25.2344C30.0195 25.3906 30.3398 25.6055 30.6211 25.8789C30.9023 26.1523 31.1172 26.4688 31.2656 26.8281C31.4141 27.1875 31.4922 27.5781 31.5 28V29.5C31.5 29.9141 31.4219 30.3008 31.2656 30.6602C31.1094 31.0195 30.8945 31.3398 30.6211 31.6211C30.3477 31.9023 30.0312 32.1172 29.6719 32.2656C29.3125 32.4141 28.9219 32.4922 28.5 32.5ZM27 29.5C27 29.7109 27.0391 29.9063 27.1172 30.0859C27.1953 30.2656 27.3008 30.4219 27.4336 30.5547C27.5664 30.6875 27.7266 30.7969 27.9141 30.8828C28.1016 30.9688 28.2969 31.0078 28.5 31C28.7109 31 28.9063 30.9609 29.0859 30.8828C29.2656 30.8047 29.4219 30.6992 29.5547 30.5664C29.6875 30.4336 29.7969 30.2734 29.8828 30.0859C29.9688 29.8984 30.0078 29.7031 30 29.5V28C30 27.7891 29.9609 27.5937 29.8828 27.4141C29.8047 27.2344 29.6992 27.0781 29.5664 26.9453C29.4336 26.8125 29.2734 26.7031 29.0859 26.6172C28.8984 26.5312 28.7031 26.4922 28.5 26.5C28.2891 26.5 28.0937 26.5391 27.9141 26.6172C27.7344 26.6953 27.5781 26.8008 27.4453 26.9336C27.3125 27.0664 27.2031 27.2266 27.1172 27.4141C27.0312 27.6016 26.9922 27.7969 27 28V29.5Z" fill="white"/>
</svg>
