<svg width="33" height="33" viewBox="0 0 33 33" fill="none" xmlns="http://www.w3.org/2000/svg">
<circle cx="16.5" cy="16.5" r="16.5" fill="#DBDEFF"/>
<g clip-path="url(#clip0)">
<path d="M21.3391 18.0688C21.5826 18.0688 21.815 18.1131 22.0363 18.2017C22.2577 18.2902 22.4569 18.423 22.634 18.6001L24.4602 20.4263C24.6317 20.5978 24.7618 20.7943 24.8503 21.0156C24.9388 21.237 24.9859 21.4722 24.9914 21.7212C24.9914 21.9647 24.9471 22.1971 24.8586 22.4185C24.7701 22.6398 24.6373 22.839 24.4602 23.0161L24.344 23.1323C24.0451 23.4312 23.7712 23.6968 23.5222 23.9292C23.2732 24.1616 23.0131 24.3553 22.7419 24.5103C22.4707 24.6652 22.1692 24.7869 21.8371 24.8755C21.5051 24.964 21.1094 25.0055 20.6501 25C19.9584 25 19.2473 24.8921 18.5168 24.6763C17.7863 24.4604 17.0614 24.1616 16.342 23.7798C15.6226 23.3979 14.9143 22.9442 14.217 22.4185C13.5197 21.8927 12.864 21.32 12.2497 20.7002C11.6355 20.0804 11.0655 19.4219 10.5398 18.7246C10.014 18.0273 9.5658 17.319 9.19503 16.5996C8.82426 15.8802 8.53097 15.158 8.31515 14.4331C8.09933 13.7082 7.99419 13.0109 7.99972 12.3413C7.99972 11.882 8.03846 11.4891 8.11593 11.1626C8.1934 10.8361 8.31238 10.5373 8.47286 10.2661C8.63335 9.99495 8.82703 9.73763 9.05392 9.49414C9.28081 9.25065 9.54643 8.97673 9.85079 8.67236L9.98361 8.53955C10.1552 8.368 10.3516 8.23519 10.573 8.14111C10.7943 8.04704 11.0295 8 11.2785 8C11.522 8 11.7544 8.04704 11.9758 8.14111C12.1971 8.23519 12.3964 8.368 12.5734 8.53955L14.3996 10.3657C14.5712 10.5373 14.7012 10.7337 14.7898 10.9551C14.8783 11.1764 14.9253 11.4116 14.9309 11.6606C14.9309 11.9041 14.8894 12.12 14.8064 12.3081C14.7234 12.4963 14.621 12.6706 14.4992 12.8311C14.3775 12.9915 14.2447 13.1326 14.1008 13.2544C13.9569 13.3761 13.8213 13.5007 13.6941 13.6279C13.5668 13.7552 13.4644 13.877 13.3869 13.9932C13.3095 14.1094 13.2679 14.245 13.2624 14.3999C13.2624 14.6102 13.3371 14.79 13.4865 14.9395L18.0603 19.5132C18.2097 19.6626 18.3895 19.7373 18.5998 19.7373C18.7437 19.7373 18.8765 19.6958 18.9983 19.6128C19.12 19.5298 19.2445 19.4274 19.3718 19.3057C19.4991 19.1839 19.6236 19.0511 19.7453 18.9072C19.8671 18.7633 20.0082 18.6278 20.1687 18.5005C20.3291 18.3732 20.5007 18.2708 20.6833 18.1934C20.8659 18.1159 21.0845 18.0744 21.3391 18.0688ZM20.6501 23.9375C21.0485 23.9375 21.3806 23.9015 21.6462 23.8296C21.9118 23.7576 22.1553 23.6497 22.3767 23.5059C22.598 23.362 22.8083 23.1849 23.0075 22.9746C23.2068 22.7643 23.4419 22.5264 23.7131 22.2607C23.8625 22.1113 23.9372 21.9315 23.9372 21.7212C23.9372 21.6216 23.8985 21.5054 23.821 21.3726C23.7435 21.2397 23.6384 21.0959 23.5056 20.9409C23.3728 20.786 23.2317 20.6338 23.0822 20.4844C22.9328 20.335 22.7779 20.1855 22.6174 20.0361C22.4569 19.8867 22.3158 19.7567 22.1941 19.646C22.0723 19.5353 21.9699 19.4385 21.8869 19.3555C21.7375 19.2061 21.5549 19.1313 21.3391 19.1313C21.1952 19.1313 21.0624 19.1729 20.9406 19.2559C20.8189 19.3389 20.6971 19.4412 20.5754 19.563C20.4537 19.6847 20.3291 19.8175 20.2019 19.9614C20.0746 20.1053 19.9307 20.2409 19.7702 20.3682C19.6097 20.4954 19.4382 20.5978 19.2556 20.6753C19.073 20.7528 18.8544 20.7943 18.5998 20.7998C18.3563 20.7998 18.1239 20.7555 17.9026 20.667C17.6812 20.5785 17.482 20.4456 17.3049 20.2686L12.7312 15.6948C12.5596 15.5233 12.4296 15.3268 12.341 15.1055C12.2525 14.8841 12.2054 14.6489 12.1999 14.3999C12.1999 14.1564 12.2414 13.9406 12.3244 13.7524C12.4074 13.5643 12.5098 13.39 12.6316 13.2295C12.7533 13.069 12.8861 12.9279 13.03 12.8062C13.1739 12.6844 13.3095 12.5571 13.4367 12.4243C13.564 12.2915 13.6664 12.1698 13.7439 12.0591C13.8213 11.9484 13.8628 11.8156 13.8684 11.6606C13.8684 11.4448 13.7937 11.2622 13.6443 11.1128C13.5723 11.0409 13.4782 10.9412 13.362 10.814C13.2458 10.6867 13.1158 10.5456 12.9719 10.3906C12.828 10.2357 12.6786 10.0807 12.5236 9.92578C12.3687 9.77083 12.2137 9.62695 12.0588 9.49414C11.9039 9.36133 11.7627 9.25895 11.6355 9.18701C11.5082 9.11507 11.3892 9.07357 11.2785 9.0625C11.0682 9.0625 10.8884 9.13721 10.739 9.28662L10.0334 9.99219C9.82866 10.1969 9.65157 10.4072 9.50216 10.623C9.35275 10.8389 9.24207 11.0796 9.17013 11.3452C9.09819 11.6108 9.05945 11.9429 9.05392 12.3413C9.05392 12.9611 9.15353 13.6003 9.35275 14.2588C9.55197 14.9173 9.83142 15.5758 10.1911 16.2344C10.5508 16.8929 10.9742 17.5404 11.4611 18.1768C11.9481 18.8132 12.4794 19.4191 13.0549 19.9946C13.6304 20.5701 14.2364 21.0959 14.8728 21.5718C15.5092 22.0477 16.1566 22.4627 16.8151 22.8169C17.4737 23.1711 18.1267 23.445 18.7741 23.6387C19.4216 23.8324 20.0469 23.932 20.6501 23.9375Z" fill="#2B3392"/>
</g>
<defs>
<clipPath id="clip0">
<rect width="17" height="17" fill="white" transform="translate(8 8)"/>
</clipPath>
</defs>
</svg>
