<svg width="61" height="60" viewBox="0 0 61 60" fill="none" xmlns="http://www.w3.org/2000/svg">
<ellipse cx="30.5" cy="30" rx="30.5" ry="30" fill="#EE1F23"/>
<path d="M42 27.75C42 27.9297 41.9414 28.0898 41.8242 28.2305L30.5742 41.7305C30.4336 41.9102 30.2422 42 30 42C29.7578 42 29.5664 41.9102 29.4258 41.7305L18.1758 28.2305C18.0586 28.0898 18 27.9297 18 27.75C18 27.6094 18.0352 27.4805 18.1055 27.3633L22.6055 19.8633C22.668 19.7539 22.7578 19.668 22.875 19.6055C22.9922 19.543 23.1172 19.5078 23.25 19.5H36.75C36.8828 19.5 37.0078 19.5312 37.125 19.5938C37.2422 19.6563 37.332 19.7461 37.3945 19.8633L41.8945 27.3633C41.9648 27.4805 42 27.6094 42 27.75ZM31.7461 21H28.2539L25.8633 27H34.1367L31.7461 21ZM23.6719 21L20.0742 27H24.2461L26.6367 21H23.6719ZM20.3555 28.5L27.6328 37.2422L24.2344 28.5H20.3555ZM30 39.1758L34.1602 28.5H25.8398L30 39.1758ZM32.3672 37.2422L39.6445 28.5H35.7656L32.3672 37.2422ZM35.7539 27H39.9258L36.3281 21H33.3633L35.7539 27Z" fill="white"/>
</svg>
