<svg width="61" height="60" viewBox="0 0 61 60" fill="none" xmlns="http://www.w3.org/2000/svg">
<ellipse cx="30.5" cy="30" rx="30.5" ry="30" fill="#EE1F23"/>
<path d="M31 42C29.8906 42 28.8281 41.8594 27.8125 41.5781C26.7969 41.2969 25.8398 40.8945 24.9414 40.3711C24.043 39.8477 23.2344 39.2227 22.5156 38.4961C21.7969 37.7695 21.1719 36.957 20.6406 36.0586C20.1094 35.1602 19.707 34.2031 19.4336 33.1875C19.1602 32.1719 19.0156 31.1094 19 30C19 28.8984 19.1406 27.8359 19.4219 26.8125C19.7031 25.7891 20.1055 24.832 20.6289 23.9414C21.1523 23.0508 21.7773 22.2422 22.5039 21.5156C23.2305 20.7891 24.043 20.1641 24.9414 19.6406C25.8398 19.1172 26.7969 18.7148 27.8125 18.4336C28.8281 18.1523 29.8906 18.0078 31 18C32.1016 18 33.1641 18.1406 34.1875 18.4219C35.2109 18.7031 36.168 19.1055 37.0586 19.6289C37.9492 20.1523 38.7578 20.7773 39.4844 21.5039C40.2109 22.2305 40.8359 23.043 41.3594 23.9414C41.8828 24.8398 42.2852 25.7969 42.5664 26.8125C42.8477 27.8281 42.9922 28.8906 43 30C43 31.1094 42.8594 32.1719 42.5781 33.1875C42.2969 34.2031 41.8945 35.1602 41.3711 36.0586C40.8477 36.957 40.2227 37.7656 39.4961 38.4844C38.7695 39.2031 37.957 39.8281 37.0586 40.3594C36.1602 40.8906 35.2031 41.293 34.1875 41.5664C33.1719 41.8398 32.1094 41.9844 31 42ZM31 19.5C30.0391 19.5 29.1133 19.625 28.2227 19.875C27.332 20.125 26.4961 20.4766 25.7148 20.9297C24.9336 21.3828 24.2227 21.9336 23.582 22.582C22.9414 23.2305 22.3945 23.9375 21.9414 24.7031C21.4883 25.4688 21.1328 26.3047 20.875 27.2109C20.6172 28.1172 20.4922 29.0469 20.5 30C20.5 30.9609 20.625 31.8867 20.875 32.7773C21.125 33.668 21.4766 34.5039 21.9297 35.2852C22.3828 36.0664 22.9336 36.7773 23.582 37.418C24.2305 38.0586 24.9375 38.6055 25.7031 39.0586C26.4688 39.5117 27.3047 39.8672 28.2109 40.125C29.1172 40.3828 30.0469 40.5078 31 40.5C31.9609 40.5 32.8867 40.375 33.7773 40.125C34.668 39.875 35.5039 39.5234 36.2852 39.0703C37.0664 38.6172 37.7773 38.0664 38.418 37.418C39.0586 36.7695 39.6055 36.0625 40.0586 35.2969C40.5117 34.5312 40.8672 33.6953 41.125 32.7891C41.3828 31.8828 41.5078 30.9531 41.5 30C41.5 29.0391 41.375 28.1133 41.125 27.2227C40.875 26.332 40.5234 25.4961 40.0703 24.7148C39.6172 23.9336 39.0664 23.2227 38.418 22.582C37.7695 21.9414 37.0625 21.3945 36.2969 20.9414C35.5312 20.4883 34.6953 20.1328 33.7891 19.875C32.8828 19.6172 31.9531 19.4922 31 19.5ZM31 30V22.5H29.5V31.5H35.5V30H31Z" fill="white"/>
</svg>
