<svg width="20" height="20" viewBox="0 0 20 20" fill="none" xmlns="http://www.w3.org/2000/svg">
<g clip-path="url(#clip0)">
<path d="M19.1666 2.50008C18.3686 3.06298 17.485 3.4935 16.5499 3.77508C16.048 3.198 15.381 2.78899 14.6391 2.60335C13.8972 2.41771 13.1162 2.46441 12.4017 2.73712C11.6871 3.00984 11.0736 3.49541 10.6441 4.12818C10.2145 4.76094 9.98967 5.51036 9.99992 6.27508V7.10841C8.53545 7.14639 7.08431 6.82159 5.77576 6.16295C4.4672 5.50431 3.34185 4.53228 2.49992 3.33341C2.49992 3.33341 -0.833415 10.8334 6.66658 14.1667C4.95036 15.3317 2.90588 15.9159 0.833252 15.8334C8.33325 20.0001 17.4999 15.8334 17.4999 6.25008C17.4991 6.01796 17.4768 5.78641 17.4333 5.55841C18.2838 4.71966 18.8839 3.66067 19.1666 2.50008V2.50008Z" stroke="#545454" stroke-width="2" stroke-linecap="round" stroke-linejoin="round"/>
</g>
<defs>
<clipPath id="clip0">
<rect width="20" height="20" fill="white"/>
</clipPath>
</defs>
</svg>
