<svg width="33" height="33" viewBox="0 0 33 33" fill="none" xmlns="http://www.w3.org/2000/svg">
<circle cx="16.5" cy="16.5" r="16.5" fill="#4AC959" fill-opacity="0.52"/>
<path d="M24.8621 15.8033C24.8621 17.9631 24.1034 19.8094 22.5862 21.3422C21.069 22.875 19.2299 23.6414 17.069 23.6414C15.7816 23.6414 14.5287 23.3163 13.3103 22.666L9 24.0246L10.3793 19.8443C9.64368 18.5902 9.27586 17.2432 9.27586 15.8033C9.27586 13.6434 10.0345 11.8029 11.5517 10.2818C13.069 8.76059 14.908 8 17.069 8C19.2299 8 21.069 8.76059 22.5862 10.2818C24.1034 11.8029 24.8621 13.6434 24.8621 15.8033ZM17.069 9.21926C15.2529 9.21926 13.7069 9.86373 12.431 11.1527C11.1552 12.4416 10.5172 13.9918 10.5172 15.8033C10.5172 17.2432 10.931 18.5321 11.7586 19.6701L10.931 22.1086L13.4828 21.3074C14.6092 22.0273 15.8046 22.3873 17.069 22.3873C18.8851 22.3873 20.431 21.7428 21.7069 20.4539C22.9828 19.165 23.6207 17.6148 23.6207 15.8033C23.6207 13.9918 22.9828 12.4416 21.7069 11.1527C20.431 9.86373 18.8851 9.21926 17.069 9.21926ZM21 17.6148C20.977 17.5915 20.8621 17.5102 20.6552 17.3709C20.5862 17.3477 20.3678 17.249 20 17.0748C19.6322 16.9006 19.4138 16.8019 19.3448 16.7787C19.1379 16.709 18.9885 16.7322 18.8966 16.8484C18.8736 16.918 18.8218 17.0051 18.7414 17.1096C18.6609 17.2141 18.5747 17.3186 18.4828 17.4232C18.3908 17.5277 18.3333 17.5915 18.3103 17.6148C18.2184 17.7541 18.0805 17.7657 17.8966 17.6496C17.1149 17.2548 16.5977 16.9413 16.3448 16.709C16.1839 16.5464 16.0287 16.3723 15.8793 16.1865C15.7299 16.0007 15.592 15.8265 15.4655 15.6639C15.3391 15.5014 15.2759 15.4085 15.2759 15.3852C15.2069 15.2227 15.2414 15.0949 15.3793 15.002C15.4713 14.8627 15.5632 14.7466 15.6552 14.6537L15.8621 14.3402C15.908 14.224 15.8966 14.1079 15.8276 13.9918C15.7356 13.6899 15.5402 13.2138 15.2414 12.5635C15.1724 12.3545 15.0345 12.25 14.8276 12.25H14.4483C14.2414 12.25 14.069 12.3313 13.931 12.4939C13.4943 12.9351 13.2759 13.4577 13.2759 14.0615C13.2759 14.6189 13.5287 15.2807 14.0345 16.0471L14.1034 16.1516C14.1494 16.2213 14.2011 16.2968 14.2586 16.3781C14.3161 16.4594 14.3966 16.5639 14.5 16.6916C14.6034 16.8193 14.7069 16.9413 14.8103 17.0574C14.9138 17.1735 15.0345 17.307 15.1724 17.458C15.3103 17.6089 15.4598 17.7541 15.6207 17.8934C15.7816 18.0328 15.9483 18.1663 16.1207 18.2941C16.2931 18.4218 16.4828 18.5379 16.6897 18.6424C16.8966 18.7469 17.1034 18.8456 17.3103 18.9385C17.6782 19.0779 17.9943 19.194 18.2586 19.2869C18.523 19.3798 18.7299 19.4378 18.8793 19.4611C19.0287 19.4843 19.1379 19.4959 19.2069 19.4959C19.2759 19.4959 19.3563 19.4843 19.4483 19.4611C19.5402 19.4378 19.5977 19.4262 19.6207 19.4262C19.8276 19.403 20.0747 19.2985 20.3621 19.1127C20.6494 18.9269 20.8276 18.7295 20.8966 18.5205C21.0805 18.0328 21.1149 17.7309 21 17.6148Z" fill="#0D7A1A"/>
</svg>
