<svg width="30" height="30" viewBox="0 0 30 30" fill="none" xmlns="http://www.w3.org/2000/svg">
<g clip-path="url(#clip0)">
<path d="M0 30.1409L2.12216 22.4016C0.813578 20.1315 0.125201 17.5572 0.126137 14.9369C0.126137 6.70043 6.83409 0 15.0629 0C19.0625 0 22.8098 1.55824 25.6294 4.37785C28.449 7.19759 30 10.9523 30 14.9443C30 23.1807 23.2921 29.8811 15.0631 29.8811H15.0557C12.555 29.8811 10.0989 29.2504 7.91733 28.0632L0 30.1409Z" fill="url(#paint0_linear)"/>
<path d="M11.1973 8.45897C10.9078 7.81338 10.6035 7.79847 10.3291 7.79108C10.1065 7.78369 9.84683 7.78369 9.58703 7.78369C9.32737 7.78369 8.91175 7.88014 8.55564 8.26594C8.1994 8.65187 7.20508 9.58682 7.20508 11.4939C7.20508 13.3934 8.59272 15.2336 8.78562 15.4932C8.97852 15.753 11.4643 19.7821 15.3896 21.333C18.6545 22.6242 19.3224 22.3644 20.0272 22.2976C20.7396 22.2309 22.3127 21.3627 22.6392 20.4574C22.9582 19.5522 22.9582 18.7804 22.8618 18.6172C22.7653 18.4539 22.5056 18.3576 22.1197 18.1645C21.7339 17.9716 19.8343 17.0367 19.4782 16.9032C19.122 16.7696 18.8623 16.7103 18.61 17.0961C18.3503 17.4819 17.6083 18.35 17.3856 18.6098C17.163 18.8695 16.9331 18.8992 16.5471 18.7063C16.1613 18.5134 14.9147 18.1051 13.4382 16.7844C12.288 15.7604 11.5089 14.4915 11.2862 14.1057C11.0636 13.7199 11.264 13.512 11.4569 13.3192C11.6275 13.1485 11.8427 12.8665 12.0358 12.6439C12.2287 12.4213 12.2954 12.2581 12.4216 11.9983C12.5477 11.7387 12.4883 11.5161 12.3919 11.3232C12.2954 11.1301 11.5386 9.22318 11.1973 8.45897V8.45897Z" fill="white"/>
</g>
<defs>
<linearGradient id="paint0_linear" x1="14.9994" y1="30.1389" x2="14.9994" y2="-0.0018091" gradientUnits="userSpaceOnUse">
<stop stop-color="#20B038"/>
<stop offset="1" stop-color="#60D66A"/>
</linearGradient>
<clipPath id="clip0">
<rect width="30" height="30" fill="white"/>
</clipPath>
</defs>
</svg>
